<svg width="93" height="83" viewBox="0 0 93 83" fill="none" xmlns="http://www.w3.org/2000/svg">
<path d="M44.0977 2.39453C45.7845 1.40762 47.7701 1.50277 49.3906 2.72754L49.709 2.9873C50.29 3.49688 50.8202 4.10693 51.2363 4.75293L51.4082 5.03223C57.995 16.3076 64.5752 27.5867 71.1533 38.8672L90.8848 72.7109C91.4117 73.6152 91.7901 74.5014 91.9336 75.4268L91.9805 75.8262C92.0871 77.1744 91.7504 78.3059 91.0908 79.1729C90.4701 79.9886 89.5161 80.6312 88.2285 80.9785L87.9668 81.0439C87.4235 81.1688 86.8399 81.227 86.2314 81.249L85.6162 81.2607C72.5683 81.2734 59.5179 81.2686 46.4668 81.2686C33.4331 81.2686 20.4005 81.266 7.36621 81.2744C6.12665 81.2744 5.02227 81.1619 4.02051 80.7373L3.82129 80.6484H3.82031C1.48467 79.546 0.477671 77.2767 1.2627 74.6758L1.26172 74.6748C1.40845 74.1902 1.60899 73.7068 1.84668 73.2422L2.09668 72.7842C15.2555 50.1849 28.4279 27.5934 41.5977 5L41.5986 5.00098C42.2031 3.96618 42.9475 3.11965 43.9033 2.5127L44.0967 2.39453H44.0977Z" stroke="#16C5C1" stroke-width="2"/>
<path d="M41.7336 25.084C45.2615 25.084 48.7152 25.084 52.2113 25.084C51.9355 35.8155 51.6619 46.5135 51.3861 57.2534C48.4521 57.2534 45.55 57.2534 42.5631 57.2534C42.2873 46.545 42.0115 35.8365 41.7336 25.084Z" fill="#16C5C1"/>
<path d="M41.7357 69.7514C41.7442 66.9125 44.1096 64.5884 46.9799 64.5947C49.8777 64.601 52.2283 66.9482 52.2155 69.8187C52.2028 72.6576 49.8374 74.9817 46.965 74.9712C44.0587 74.9607 41.7251 72.6345 41.7357 69.7514Z" fill="#16C5C1"/>
</svg>
