<svg width="30" height="29" viewBox="0 0 30 29" fill="none" xmlns="http://www.w3.org/2000/svg">
<path d="M19.3027 9.52413C21.8958 9.52413 24.2322 9.51771 26.5749 9.52413C28.9498 9.53697 30.1244 10.5707 29.9896 12.9205C29.8933 14.5834 29.5981 16.2977 29.0396 17.8643C28.0704 20.5737 26.7996 23.174 25.6956 25.8384C25.0601 27.3665 23.9562 28.0406 22.3323 28.0278C18.8598 28.0021 15.381 28.0406 11.9086 28.015C9.72626 27.9957 8.68646 26.9299 8.68004 24.747C8.6672 20.2013 8.61585 15.6556 8.72497 11.11C8.74422 10.1983 9.1871 9.09396 9.8097 8.42624C12.1011 5.96079 14.5466 3.64301 16.9279 1.25461C17.8008 0.381435 18.7636 -0.061574 19.9382 0.625412C21.0614 1.28672 21.0678 2.2883 20.779 3.42472C20.2719 5.37011 19.8355 7.33476 19.3156 9.52413H19.3027Z" fill="white"/>
<path d="M0.0149767 18.6211C0.0149767 16.6436 -0.00427888 14.6725 0.0149767 12.695C0.0406509 10.8074 1.08687 9.59395 2.69151 9.52975C4.36675 9.46554 5.56701 10.6918 5.58627 12.6437C5.62478 16.7014 5.62478 20.7527 5.58627 24.8104C5.56701 26.7301 4.34107 28.0463 2.73644 28.0077C1.12538 27.9628 0.0278137 26.653 0.00855805 24.7012C-0.0106976 22.6724 0.00855805 20.6435 0.00855805 18.6147L0.0149767 18.6211Z" fill="white"/>
</svg>
