<svg width="56" height="40" viewBox="0 0 56 40" fill="none" xmlns="http://www.w3.org/2000/svg">
<g clip-path="url(#clip0_743_296)">
<path d="M30.86 2.27979C36.54 7.56979 39.19 15.8398 37.9 23.4898C36.85 29.6498 33.16 35.4498 27.95 38.8898C23.08 35.7098 19.49 30.3198 18.24 24.6298C16.31 15.8498 19.53 6.51979 26.58 0.95979C26.75 0.82979 27.81 0.0197897 27.89 -0.000210273C28.09 -0.0402103 28.94 0.61979 29.16 0.79979C29.7 1.22979 30.35 1.80979 30.86 2.27979Z" fill="white"/>
<path d="M21.97 37.0801C22.64 37.8201 23.38 38.5001 24.12 39.1701C24.15 39.3401 24.1 39.2701 24.01 39.3001C23.27 39.5801 20.41 39.1901 19.5 39.0301C7.15999 36.8401 -1.20001 25.3901 0.139987 12.9401C0.169987 12.7101 0.359987 11.5001 0.459987 11.4001C0.549987 11.3101 0.929987 11.2301 1.07999 11.2101C5.40999 10.5801 9.83999 11.1101 13.87 12.7801C14.24 12.9301 15.46 13.4101 15.69 13.6301C15.83 13.7601 15.75 14.1101 15.72 14.3001C15.62 15.0201 15.41 15.7601 15.33 16.4901C14.49 23.9101 16.98 31.5801 21.98 37.0801H21.97Z" fill="white"/>
<path d="M55.5 11.3893C55.55 11.4393 55.74 12.5893 55.76 12.7793C57.28 26.1993 47.17 38.9493 33.44 39.3793C33.09 39.3893 32.11 39.4393 31.86 39.2593C31.72 39.1593 31.83 39.1393 31.9 39.0593C32.29 38.5593 33.19 37.8993 33.68 37.3693C38.91 31.7693 41.48 23.9193 40.57 16.2693C40.52 15.8393 40.06 13.8593 40.21 13.6293C40.26 13.5493 41.75 12.9093 41.97 12.8093C46.2 11.0593 50.98 10.4793 55.49 11.3893H55.5Z" fill="white"/>
</g>
<defs>
<clipPath id="clip0_743_296">
<rect width="55.92" height="39.4" fill="white"/>
</clipPath>
</defs>
</svg>
